# xmcd
#
# Track frame offsets:
#	150
#	23255
#	39420
#	68292
#	92484
#	130499
#	157860
#	189106
#	210707
#	233172
#	255059
#	297105
#
# Disc length: 4319 seconds
#
# Revision: 0
# Processed by: cddbd v1.5.2PL0 Copyright (c) Steve Scherf et al.
# Submitted via: audiograbber 1.83.01
#
DISCID=8310dd0c
DTITLE=Jo Mils and Jon White - Thinking Out Loud Asia presents Attica (Disk 1)
DYEAR=2008
DGENRE=Minimal, Tech House, Progressive
TTITLE0=Luc Ringeisen - Les Trombonnes Du Caire
TTITLE1=Kamisshake - Dark Beat (Deadmau5 vocal Remix)
TTITLE2=Matthias Heilbronn - Jungle in the City
TTITLE3=4 Tune 500  - You Gotta Believe (DUB)
TTITLE4=Gabriel Ananda - Doppelwhipper
TTITLE5=Eyerer and Hinz - Tucan (Nic Fanciulli rmx)
TTITLE6=Shlomi Aber - Freakside
TTITLE7=Jurgen Paape and Boy Schaufler - We love
TTITLE8=Patrick Lyndsey - Wanton Mood
TTITLE9=Tiger Stripes - Survivor
TTITLE10=Wink - Thick as Thieves
TTITLE11=Shenoda - True
EXTD=
EXTT0=
EXTT1=
EXTT2=
EXTT3=
EXTT4=
EXTT5=
EXTT6=
EXTT7=
EXTT8=
EXTT9=
EXTT10=
EXTT11=
PLAYORDER=
